<svg width="428" height="487" viewBox="0 0 428 487" fill="none" xmlns="http://www.w3.org/2000/svg">
<path d="M56.7299 0.249527C60.5181 1.83982 63.0463 5.08811 65.6444 8.12851C69.2921 12.3604 73.4327 15.8604 77.8097 19.3365C79.6556 20.8212 81.4595 22.3424 83.2548 23.8861C87.4814 27.5029 91.8676 30.8574 96.3855 34.112C96.9482 34.5208 97.5108 34.9295 98.0905 35.3506C98.6231 35.7292 99.1556 36.1078 99.7043 36.4979C100.177 36.8352 100.65 37.1725 101.137 37.52C102.605 38.3849 103.736 38.8116 105.425 39.0522C107.869 38.3961 107.869 38.3961 110.513 37.3905C121.962 33.4296 133.672 33.2166 145.66 34.6538C148.067 34.7629 150.285 34.3741 152.666 34.0222C163.325 33.4253 173.612 34.6417 183.544 38.6396C185.901 39.1715 186.837 38.6158 189.006 37.6151C190.044 36.9629 191.059 36.2732 192.05 35.552C192.613 35.1432 193.176 34.7344 193.756 34.3132C194.347 33.8763 194.938 33.4394 195.547 32.9893C196.16 32.5389 196.774 32.0886 197.405 31.6246C204.541 26.3398 211.24 20.6401 217.831 14.7051C218.961 13.6938 220.103 12.6944 221.255 11.7073C224.465 8.95655 227.324 6.15411 229.993 2.8824C231.756 1.07591 233.279 0.360139 235.788 0.00813312C239.956 -0.056061 242.512 0.195807 245.696 3.1238C253.655 12.1005 252.919 25.7123 252.406 36.8182C252.042 41.6408 250.933 45.9809 249.33 50.5493C249.075 51.3459 248.82 52.1425 248.558 52.9632C244.776 63.8158 237.785 72.0237 229.706 80.0106C239.178 92.1899 249.155 104.631 261.257 114.384C263.577 116.301 264.052 117.445 264.32 120.34C264.19 131.51 252.106 143.415 244.969 151.149C245.689 151.386 246.408 151.623 247.15 151.867C247.654 154.673 247.545 156.189 246.136 158.713C238.219 169.825 227.549 177.95 215.897 184.921C216.073 185.278 216.248 185.634 216.429 186.001C223.824 201.196 229.576 217.616 228.801 234.702C227.83 245.61 227.83 245.61 232.023 255.271C233.813 257.143 235.659 258.768 237.701 260.371C238.181 260.845 238.661 261.32 239.155 261.808C246.694 252.193 247.344 241.946 246.423 230.191C246.192 228.591 245.948 226.993 245.693 225.397C244.825 219.723 244.71 214.131 244.742 208.41C244.744 207.888 244.746 207.366 244.748 206.829C244.789 199.11 244.988 191.673 247.15 184.203C247.317 183.615 247.485 183.027 247.658 182.421C251.118 170.663 255.679 160.458 263.866 151.149C264.196 150.719 264.527 150.289 264.868 149.846C273.182 139.246 287.127 132.704 300.205 130.31C303.341 129.929 307.89 129.096 310.864 130.31C313.609 132.626 313.157 135.349 313.061 139.113C312.949 143.482 310.974 146.932 309.031 150.756C301.106 166.474 301.043 185.033 306.527 201.538C308.22 206.409 276.895 225.397 300.205 220.119C308.278 238.965 288.229 264.199 280.632 283.01C274.372 296.669 295.11 300.743 280.632 306.167C269.908 309.71 259.461 309.177 248.603 306.359C248.496 306.786 248.39 307.213 248.279 307.653C245.128 319.168 237.134 330.062 227.526 337.258C227.286 337.732 227.046 338.206 226.799 338.695C227.232 338.876 227.665 339.058 228.111 339.245C229.903 340.241 230.76 341.201 231.978 342.827C232.339 343.297 232.701 343.768 233.074 344.253C235.358 347.995 235.785 351.643 235.793 355.941C235.811 356.433 235.829 356.926 235.847 357.434C235.872 361.74 234.429 364.161 231.448 367.182C228.879 368.619 226.361 368.456 223.487 368.435C222.861 368.439 222.234 368.443 221.588 368.447C219.515 368.456 217.442 368.45 215.369 368.443C213.924 368.444 212.479 368.446 211.034 368.449C208.003 368.452 204.971 368.447 201.94 368.437C198.069 368.425 194.198 368.432 190.327 368.445C187.34 368.453 184.354 368.45 181.367 368.445C179.941 368.443 178.515 368.445 177.089 368.45C159.215 368.499 159.215 368.499 152.868 362.697C151.94 361.689 151.94 361.689 151.213 360.252C144.327 359.434 144.327 359.434 138.02 361.296C136.978 362.614 136.978 362.614 136.109 364.022C134.338 366.542 131.469 367.098 128.56 367.839C125.759 368.271 122.981 368.28 120.154 368.295C119.523 368.301 118.891 368.307 118.24 368.313C116.157 368.33 114.075 368.342 111.992 368.353C110.922 368.358 110.922 368.358 109.831 368.364C106.061 368.383 102.291 368.397 98.5206 368.408C95.4025 368.417 92.2847 368.437 89.1667 368.467C85.3972 368.502 81.6281 368.52 77.8584 368.525C76.4238 368.53 74.9891 368.541 73.5545 368.558C71.5468 368.581 69.5404 368.581 67.5326 368.575C66.9423 368.587 66.3521 368.599 65.7439 368.611C61.5133 368.565 59.6964 367.551 56.7299 364.563C53.9713 360.866 54.8189 354.594 55.2763 350.192C56.3859 345.717 59.0597 341.756 62.5442 338.695C63.0239 338.695 63.5036 338.695 63.9978 338.695C63.5031 338.206 63.0085 337.717 62.4988 337.213C62.1643 336.879 61.8299 336.546 61.4853 336.202C60.7413 335.472 59.9861 334.754 59.2197 334.047C48.824 324.272 40.9564 310.964 40.4878 296.596C40.3232 282.61 45.3334 269.592 54.5495 258.934C55.2034 258.393 55.8574 257.852 56.5311 257.295C59.7085 254.428 61.5686 252.292 62.101 248.053C62.2805 243.411 62.1057 238.786 61.9452 234.146C61.4122 218.391 66.2648 202.968 73.0543 188.868C74.3195 186.487 74.3195 186.487 74.1729 184.203C72.6084 182.989 72.6084 182.989 70.5844 181.868C60.6588 175.869 49.0753 167.313 43.6476 156.897C43.5113 154.158 43.5113 154.158 43.6476 151.867C44.3671 151.63 45.0867 151.393 45.828 151.149C45.5282 150.817 45.2284 150.486 44.9195 150.144C43.5133 148.574 42.1244 146.99 40.7404 145.4C40.2776 144.871 39.8148 144.342 39.338 143.797C36.3775 140.289 33.8226 136.635 31.4284 132.735C31.0217 132.079 31.0217 132.079 30.6069 131.409C28.402 127.728 26.2046 123.796 26.2046 119.442C27.7331 115.097 31.1377 112.539 34.5627 109.64C41.3337 103.657 47.5487 97.1795 53.0959 90.0705C53.4188 89.659 53.7417 89.2475 54.0743 88.8235C56.1836 86.135 58.2788 83.4361 60.3638 80.7291C59.3052 78.2632 57.9537 76.8594 55.9577 75.0704C43.6688 63.175 38.0464 45.7532 37.6061 29.0821C37.7761 20.265 39.2005 11.2443 44.3744 3.84237C48.436 0.302757 51.3666 -0.43725 56.7299 0.249527Z" fill="#020202"/>
<path d="M128.08 71.5512C133.237 75.2055 137.611 79.558 141.519 84.5283C143.831 85.6973 146.159 85.658 148.659 85.2502C151.394 83.4447 153.185 81.3621 155.265 78.8434C159.706 73.5888 165.89 69.1307 172.793 68.3337C178.902 68.3276 183.779 68.7772 189.362 71.5343C190.118 71.9019 190.875 72.2694 191.655 72.6482C199.088 76.4758 204.959 81.5597 211.088 87.2015C214.228 90.034 217.494 92.7019 220.781 95.3566C221.264 95.7586 221.748 96.1606 222.246 96.5748C227.259 100.604 233.004 103.286 238.99 105.508C241.956 106.67 243.216 107.845 245.06 110.516C246.9 112.276 248.834 113.921 250.772 115.569C251.209 115.941 251.645 116.312 252.095 116.695C253.079 117.527 254.067 118.354 255.057 119.179C253.97 123.355 251.965 127.318 249.344 130.729C247.202 130.729 247.202 130.729 246.18 129.875C245.824 129.474 245.468 129.073 245.102 128.659C244.691 128.205 244.281 127.75 243.858 127.282C243.415 126.782 242.972 126.282 242.516 125.766C241.553 124.705 240.589 123.646 239.623 122.588C239.115 122.031 238.606 121.474 238.082 120.899C231.078 113.325 223.883 106.056 215.783 99.6879C215.199 99.1771 214.615 98.6662 214.014 98.1398C203.746 89.186 190.923 80.4521 177.047 80.6989C170.24 81.2574 164.783 84.6495 160.085 89.5815C155.08 96.8401 153.398 103.232 154.372 111.96C155.979 117.68 159.479 121.352 164.412 124.427C165.977 125.305 167.557 126.149 169.145 126.984C174.639 129.981 179.517 133.223 184.363 137.226C185.084 137.809 185.805 138.391 186.547 138.991C195.781 146.579 204.206 155.155 211.498 164.658C213.061 166.584 214.624 168.51 216.187 170.436C217.211 171.877 217.211 171.877 217.211 173.321C201.895 182.476 185.613 188.25 167.939 190.646C167.119 190.757 167.119 190.757 166.282 190.871C152.026 192.723 137.905 192.538 123.667 190.646C123.126 190.576 122.585 190.507 122.028 190.435C105.053 188.169 88.9888 182.322 74.3954 173.321C74.3954 170.202 74.5297 169.899 76.3591 167.636C77.0495 166.781 77.0495 166.781 77.7538 165.91C78.2951 165.259 78.8363 164.607 79.394 163.936C79.6927 163.569 79.9914 163.202 80.2991 162.824C88.7675 152.418 97.932 143.063 108.671 135.06C109.244 134.621 109.816 134.182 110.406 133.729C113.206 131.653 116.091 129.83 119.117 128.112C119.717 127.77 120.317 127.428 120.935 127.076C122.132 126.4 123.334 125.733 124.542 125.077C130.16 121.917 133.766 118.258 135.806 111.96C136.837 104.183 135.824 98.3648 131.522 91.7472C131.24 91.3042 130.958 90.8613 130.668 90.4049C126.831 85.143 120.626 82.0218 114.384 80.9188C101.467 79.4387 89.9596 87.3522 80.1108 95.0549C71.054 102.425 62.4263 110.216 54.2228 118.547C53.6097 119.164 52.9967 119.781 52.3651 120.417C49.0812 123.742 45.943 127.112 42.9761 130.729C41.0564 128.865 39.7888 126.986 38.4684 124.638C38.0736 123.954 37.6787 123.27 37.2718 122.566C36.5494 120.623 36.5494 120.623 36.9734 119.083C38.0943 117.578 39.2646 116.455 40.6999 115.254C42.3946 113.806 43.9932 112.376 45.5646 110.787C49.1761 107.136 52.0148 105.07 56.9006 103.523C66.1092 100.279 72.7582 94.2815 79.7182 87.554C92.0677 75.6615 110.785 61.4993 128.08 71.5512Z" fill="#E0E1E2"/>
<path d="M192.992 92.2783C202.286 97.1864 210.815 103.399 218.545 110.388C220.02 111.71 221.519 112.98 223.044 114.246C226.774 117.393 230.255 120.766 233.745 124.157C234.383 124.771 235.021 125.386 235.679 126.019C238.562 128.812 241.421 131.627 244.185 134.531C244.601 134.965 245.017 135.4 245.445 135.848C246.323 137.132 246.323 137.132 246.323 140.005C244.244 143.24 241.262 145.203 238.099 147.371C236.594 148.523 236.594 148.523 235.982 150.104C235.963 150.564 235.945 151.024 235.927 151.498C236.539 152.091 237.152 152.683 237.783 153.294C238.396 153.887 239.008 154.479 239.64 155.09C239.265 159.438 234.911 162.707 231.703 165.36C229.91 166.749 228.105 168.116 226.273 169.456C223.435 166.786 220.843 163.986 218.29 161.061C214.582 156.854 210.871 152.663 206.965 148.625C206.424 148.064 206.424 148.064 205.871 147.492C195.23 136.579 182.834 127.384 169.047 120.475C165.014 118.407 162.41 116.301 160.925 111.99C160.411 106.494 160.689 102.253 163.895 97.6237C164.293 97.0014 164.691 96.3792 165.102 95.738C173.417 87.6945 182.875 87.4867 192.992 92.2783Z" fill="#51555A"/>
<path d="M118.88 92.2412C122.674 94.6643 125.598 98.5971 126.969 103.004C127.772 107.542 128.05 112.465 125.44 116.393C122.684 119.47 119.029 121.339 115.535 123.373C108.128 127.719 101.639 132.652 95.2085 138.426C94.5731 138.991 93.9377 139.555 93.283 140.137C85.8553 146.905 79.0238 154.166 72.9292 162.24C71.8712 163.609 70.8124 164.977 69.7526 166.344C68.9544 167.381 68.1565 168.419 67.3594 169.456C64.1283 167.943 61.9752 165.611 59.4833 163.052C59.0251 162.601 58.5669 162.15 58.0949 161.685C57.6654 161.245 57.236 160.805 56.7935 160.351C56.3993 159.952 56.005 159.553 55.5988 159.142C54.8272 157.91 54.8272 157.91 54.9219 156.405C55.5235 155.024 55.5235 155.024 57.6121 153.58C58.1245 151.513 58.1245 151.513 57.6121 149.251C56.2701 147.797 55.1071 146.721 53.5653 145.552C51.1146 143.619 48.8808 141.85 47.1687 139.148C48.0506 137.165 48.9748 135.634 50.4132 134.043C50.7877 133.626 51.1621 133.21 51.5478 132.782C51.9551 132.337 52.3624 131.893 52.7821 131.435C53.2086 130.967 53.6352 130.498 54.0747 130.015C61.61 121.787 69.1243 113.617 77.8028 106.674C78.5594 106.035 79.3145 105.394 80.0683 104.751C85.7319 99.9628 91.5992 95.9088 97.9935 92.2412C98.5813 91.897 99.1692 91.5528 99.7748 91.1982C106.199 87.8034 112.673 88.7865 118.88 92.2412Z" fill="#51555A"/>
<path d="M132.413 42.0561C133.463 42.0519 133.463 42.0519 134.533 42.0477C138.718 42.0532 142.803 42.2759 146.959 42.7769C148.875 42.8671 150.441 42.5559 152.309 42.1454C170.088 40.8233 186.11 45.4765 199.897 57.0252C207.386 63.6362 213.087 70.9859 218.972 79.0112C221.181 81.9795 223.49 84.8679 225.822 87.7408C227.209 89.4722 228.143 90.7793 228.852 92.9065C225.882 91.6854 223.64 89.5858 221.252 87.4998C220.805 87.1152 220.359 86.7306 219.899 86.3343C217.345 84.1249 214.86 81.8586 212.399 79.546C205.919 73.6851 198.161 69.3105 190.223 65.7386C189.724 65.4953 189.225 65.252 188.711 65.0013C182.15 62.251 172.13 62.4263 165.49 64.8561C158.486 68.4183 151.69 73.4592 147.302 80.0375C144.99 79.0495 143.786 77.987 142.25 76.016C136.986 69.8207 129.157 64.3273 120.862 63.4445C112.266 63.028 105.616 63.8166 97.9423 67.8835C97.5 68.1133 97.0577 68.3431 96.6021 68.5799C89.3328 72.436 83.2551 77.3747 77.197 82.8973C76.4641 83.5593 75.731 84.2212 74.9978 84.8829C73.6823 86.0758 72.3696 87.2717 71.0606 88.4716C68.8546 90.4772 66.5989 92.4136 64.3206 94.3364C63.8485 94.1005 63.3763 93.8646 62.8899 93.6215C63.1446 93.2953 63.3993 92.9691 63.6617 92.633C64.8804 91.0713 66.0983 89.509 67.3162 87.9466C67.7673 87.3683 68.2183 86.79 68.6831 86.1941C70.9445 83.2902 73.195 80.3794 75.4142 77.4431C79.6092 71.8927 83.8294 66.4881 88.6427 61.4489C89.2637 60.7729 89.2637 60.7729 89.8973 60.0833C100.878 48.4974 116.65 41.995 132.413 42.0561Z" fill="#A6ACB0"/>
<path d="M146.68 131.059C147.17 131.047 147.661 131.035 148.167 131.023C152.143 131.019 155.001 131.998 158.009 134.709C159.491 137.962 159.376 141.342 158.292 144.735C156.844 147.967 155.057 150.411 152.411 152.729C151.942 152.729 151.473 152.729 150.989 152.729C151.951 155.097 152.765 156.837 154.632 158.55C157.434 159.69 160.098 159.828 163.074 159.382C163.777 158.894 164.481 158.406 165.206 157.903C167.383 157.719 167.383 157.719 169.471 157.903C170.893 159.382 170.893 159.382 171.204 161.138C170.893 163.078 170.893 163.078 169.338 164.695C166.168 166.82 163.984 167.592 160.23 167.514C160.109 167.996 159.988 168.478 159.864 168.975C158.331 174.725 156.501 178.751 151.7 182.299C148.82 183.796 145.576 183.546 142.459 183.038C137.544 180.534 135.666 175.995 133.796 170.895C133.218 168.992 133.218 168.992 133.218 167.514C132.806 167.503 132.393 167.493 131.969 167.482C127.678 167.209 125.442 166.465 122.555 163.078C122.2 161.091 122.2 161.091 122.555 159.382C123.025 158.894 123.494 158.406 123.977 157.903C128.304 158.305 128.304 158.305 130.375 159.382C133.715 159.806 136.168 159.69 139.216 158.134C141.089 156.376 141.791 155.229 142.459 152.729C142.063 152.576 141.667 152.424 141.26 152.267C137.976 150.236 135.585 146.959 134.64 143.118C134.253 139.732 134.18 137.297 135.839 134.293C139.12 131.25 142.422 131.038 146.68 131.059Z" fill="#040303"/>
<path d="M237.169 10.4824C238.908 10.6326 238.908 10.6326 240.898 11.1812C242.025 12.5815 242.025 12.5815 242.902 14.3694C243.197 14.9468 243.492 15.5242 243.796 16.1191C245.797 21.0584 246.357 25.4227 246.305 30.66C246.313 31.5544 246.313 31.5544 246.322 32.467C246.32 33.0363 246.318 33.6056 246.316 34.1921C246.315 34.7054 246.313 35.2188 246.311 35.7477C246.118 37.0364 246.118 37.0364 244.627 38.434C244.392 37.8449 244.158 37.2558 243.916 36.6488C243.597 35.8831 243.278 35.1175 242.949 34.3286C242.637 33.5665 242.326 32.8045 242.005 32.0193C240.813 29.8968 240.312 29.3488 237.915 28.6509C234.866 28.2583 234.866 28.2583 231.948 28.6509C230.074 30.188 230.074 30.188 228.219 32.1449C222.756 37.3957 217.235 42.2813 211.066 46.8194C209.652 47.8815 208.238 48.9442 206.825 50.0077C205.753 50.8088 204.681 51.6097 203.608 52.4098C202.269 51.6436 200.933 50.8707 199.6 50.095C198.856 49.6653 198.112 49.2357 197.345 48.793C195.405 47.5182 195.405 47.5182 193.913 45.4219C194.292 45.1658 194.67 44.9097 195.06 44.6458C202.888 39.334 210.513 33.9268 217.778 27.9521C218.316 27.518 218.853 27.0838 219.407 26.6365C220.864 25.4555 222.306 24.2607 223.745 23.0606C224.405 22.5147 225.066 21.9689 225.746 21.4065C229.854 17.9701 233.679 14.4775 237.169 10.4824Z" fill="#A3A9AD"/>
<path d="M53.2526 10.4819C55.8917 10.8835 57.0677 11.798 58.8962 13.6265C59.4061 14.1281 59.916 14.6297 60.4413 15.1466C61.2464 15.9507 61.2464 15.9507 62.0677 16.771C66.1182 20.7318 70.1372 24.4709 74.6996 27.8889C76.5021 29.2469 78.2456 30.6568 79.9823 32.0907C85.7135 36.8167 91.7366 41.135 97.8309 45.4214C96.9062 48.0741 95.7977 48.5567 93.4005 50.0945C92.7288 50.5296 92.0571 50.9647 91.3651 51.4129C90.846 51.7417 90.327 52.0705 89.7922 52.4093C79.8629 48.1554 70.9469 38.0278 63.4294 30.6513C61.3928 28.767 60.6954 28.6631 57.7743 28.3884C55.3903 28.4379 54.7668 28.6161 52.7045 29.9607C50.5493 32.8229 49.3423 35.8163 48.137 39.1323C47.8959 39.1323 47.6547 39.1323 47.4062 39.1323C46.8253 17.7904 46.8253 17.7904 53.2526 10.4819Z" fill="#A4AAAE"/>
<path d="M56.7385 33.1924C58.9257 34.1192 60.3727 35.1735 62.0265 36.8192C62.4868 37.271 62.9471 37.7227 63.4213 38.1882C63.9049 38.6673 64.3884 39.1464 64.8866 39.6401C69.2402 43.8848 73.6567 47.7648 78.5842 51.3977C79.76 52.2952 80.9348 53.1938 82.1077 54.0948C81.0539 56.4176 79.6469 57.992 77.8355 59.8261C74.2473 63.5603 71.1276 67.5265 68.0137 71.6258C61.2835 68.9672 57.0431 61.5134 53.4958 55.7515C51.5715 51.1998 52.5353 47.1136 53.8317 42.5479C53.9543 42.0916 54.0769 41.6352 54.2033 41.1651C54.9391 38.4689 55.7869 35.8255 56.7385 33.1924Z" fill="#DFE0E1"/>
<path d="M236.031 33.1924C237.584 33.8667 237.584 33.8667 238.557 36.008C243.962 50.3573 243.962 50.3573 240.107 57.0868C231.515 69.5198 231.515 69.5198 225.163 71.6258C224.628 71.0226 224.092 70.4194 223.541 69.7979C219.107 64.8327 214.576 60.0402 209.637 55.4433C210.841 52.66 213.164 51.1422 215.75 49.3327C216.665 48.6765 217.579 48.0189 218.492 47.36C218.956 47.0248 219.42 46.6896 219.899 46.3443C225.531 42.2098 230.878 37.7702 236.031 33.1924Z" fill="#E0E1E2"/>
<path d="M115.276 102.325C118.279 104.225 120.455 106.47 122.089 109.572C122.439 114.148 122.439 114.148 121.171 116.176C119.769 116.91 119.769 116.91 117.788 116.772C115.904 116.176 115.904 116.176 114.357 114.708C113.823 113.247 113.307 111.779 112.811 110.305C111.997 109.373 111.997 109.373 110.154 109.434C108.043 109.375 108.043 109.375 106.626 111.039C105.838 112.745 105.064 114.457 104.307 116.176C103.534 116.91 103.534 116.91 101.649 117.047C99.6681 116.91 99.6681 116.91 98.1219 115.442C97.5203 112.122 97.8187 109.448 99.3299 106.407C103.901 101.623 108.658 100.108 115.276 102.325Z" fill="#030303"/>
<path d="M186.552 102.014C189.967 103.593 192.023 105.274 193.61 108.866C193.932 111.116 194.093 113.254 193.61 115.485C191.457 116.956 191.457 116.956 189.708 117.047C187.142 115.893 186.658 114.228 185.57 111.669C185.098 110.349 185.098 110.349 184.281 109.601C182.517 109.417 182.517 109.417 180.693 109.601C179.097 111.017 179.097 111.017 178.54 113.278C177.822 115.485 177.822 115.485 176.387 116.956C174.021 116.713 173.069 116.498 171.363 114.749C171.018 111.686 171.157 110.001 172.574 107.257C176.444 102.434 180.486 100.05 186.552 102.014Z" fill="#020203"/>
<path d="M147.291 164.397C149.563 165.552 151.668 166.784 153.733 168.153C153.243 171.369 151.473 173.95 148.492 176.254C146.035 176.507 146.035 176.507 143.251 176.254C140.962 174.485 139.098 172.548 138.01 170.178C138.293 168.506 138.652 167.669 140.153 166.428C144.387 164.023 144.387 164.023 147.291 164.397Z" fill="#F35C57"/>
<path d="M141.504 138.011C144.386 138.011 147.269 138.011 150.239 138.011C150.057 141.004 149.898 143.025 148.523 145.512C147.119 146.696 147.119 146.696 145.559 146.746C143.485 145.63 142.677 144.378 141.504 141.959C141.504 140.656 141.504 139.353 141.504 138.011Z" fill="#4E5156"/>
<path d="M272.058 153.734C274.31 154.044 274.31 154.044 276.757 154.656C278.156 154.988 278.156 154.988 279.584 155.326C286.349 157.236 292.005 160.058 296.969 165.72C297.004 167.791 297.004 167.791 296.773 170.337C296.695 171.247 296.617 172.156 296.536 173.093C296.446 174.045 296.355 174.997 296.262 175.977C296.177 176.937 296.093 177.896 296.006 178.884C295.796 181.258 295.578 183.632 295.352 186.004C294.835 185.875 294.318 185.745 293.785 185.611C287.716 184.207 281.879 183.84 275.696 183.872C274.74 183.873 273.784 183.875 272.799 183.876C266.027 183.961 259.813 184.624 253.312 186.926C254.3 176.941 262.088 154.284 272.058 153.734Z" fill="#A3A9AD"/>
<path d="M306.805 134.581C307.732 137.598 307.732 137.598 306.501 140.653C305.915 141.859 305.321 143.061 304.721 144.258C302.116 149.648 300.05 154.861 298.467 160.722C297.95 160.44 297.433 160.159 296.9 159.869C296.194 159.487 295.489 159.105 294.761 158.711C294.046 158.318 293.331 157.926 292.594 157.521C286.065 154.101 279.629 152.175 272.527 150.668C276.067 146.394 279.581 143.959 284.339 141.494C284.997 141.146 285.656 140.799 286.334 140.441C293.17 136.892 299.121 134.049 306.805 134.581Z" fill="#505459"/>
<path d="M79.6888 166.931C85.535 170.88 90.5247 175.257 92.112 182.078C92.7542 187.045 93.1922 191.332 90.3927 195.699C83.4575 199.591 75.4651 199.166 67.6538 199.118C66.6065 199.124 65.5593 199.131 64.4804 199.138C57.8022 199.123 51.8656 199.014 45.9686 195.752C43.0123 191.196 43.5184 186.431 44.1938 181.236C45.0164 178.686 46.1326 176.679 47.7433 174.504C48.2558 173.758 48.7683 173.012 49.2962 172.243C57.4008 164.344 69.1956 161.69 79.6888 166.931Z" fill="black"/>
<path d="M75.9256 171.358C80.3103 174.122 84.0526 177.186 85.243 181.96C85.7247 185.437 86.0532 188.438 83.9536 191.495C78.7522 194.22 72.7579 193.922 66.8994 193.888C66.114 193.893 65.3285 193.897 64.5193 193.902C59.5107 193.892 55.0583 193.816 50.6355 191.532C48.4183 188.343 48.7979 185.007 49.3044 181.371C49.9214 179.586 50.7585 178.181 51.9666 176.659C52.3509 176.136 52.7352 175.614 53.1312 175.076C59.2097 169.547 68.0558 167.688 75.9256 171.358Z" fill="#51555A"/>
<path d="M237.472 168.465C241.469 171.603 244.227 176.217 245.8 181.077C246.661 191.388 246.661 191.388 244.26 195.675C237.622 199.504 229.745 199.134 222.335 199.113C221.376 199.127 220.417 199.14 219.429 199.154C207.018 199.161 207.018 199.161 202.233 194.782C200.226 190.097 200.746 184.382 202.102 179.559C204.756 173.458 209.081 168.492 215.041 165.708C223.099 162.992 230.155 164.024 237.472 168.465Z" fill="black"/>
<path d="M234.356 173.117C237.584 175.313 239.812 178.543 241.082 181.945C241.777 189.162 241.777 189.162 239.838 192.163C234.477 194.844 228.114 194.585 222.13 194.57C221.355 194.58 220.581 194.589 219.783 194.599C209.758 194.604 209.758 194.604 205.894 191.539C204.273 188.259 204.693 184.258 205.787 180.882C207.931 176.612 211.425 173.135 216.238 171.187C222.747 169.285 228.445 170.008 234.356 173.117Z" fill="#51555A"/>
<path d="M0.830482 202.104C0.397292 199.654 2.28161 197.408 4.76937 197.408H304.43C306.923 197.408 308.809 199.663 308.367 202.116L258.271 480.619C257.928 482.525 256.27 483.911 254.334 483.911H54.0169C52.0765 483.911 50.4159 482.518 50.0781 480.608L0.830482 202.104Z" fill="black"/>
<path d="M0.830482 202.104C0.397292 199.654 2.28161 197.408 4.76937 197.408H304.43C306.923 197.408 308.809 199.663 308.367 202.116L258.271 480.619C257.928 482.525 256.27 483.911 254.334 483.911H54.0169C52.0765 483.911 50.4159 482.518 50.0781 480.608L0.830482 202.104Z" fill="black"/>
<path d="M16.5252 210.819C16.1064 208.375 17.9886 206.143 20.4677 206.143H288.735C291.219 206.143 293.102 208.383 292.675 210.83L247.775 468.37C247.441 470.285 245.779 471.683 243.835 471.683H64.6068C62.6583 471.683 60.9934 470.279 60.6642 468.359L16.5252 210.819Z" fill="#00833E"/>
<rect width="27.9516" height="202.649" rx="13.9758" transform="matrix(-1 0 0 1 169.455 234.094)" fill="black"/>
<rect width="17.4697" height="193.914" rx="8.73486" transform="matrix(-1 0 0 1 164.215 239.335)" fill="#005A2B"/>
<rect width="27.9516" height="202.649" rx="13.9758" transform="matrix(-0.996195 -0.0871557 -0.0871557 0.996195 237.63 237.445)" fill="black"/>
<rect width="18.3667" height="192.809" rx="9.18334" transform="matrix(-0.994117 -0.108309 -0.0843534 0.996436 231.765 242.57)" fill="#005A2B"/>
<rect width="27.9516" height="202.649" rx="13.9758" transform="matrix(-0.996195 0.0871557 0.0871557 0.996195 101.175 235.008)" fill="black"/>
<rect width="17.5759" height="190.961" rx="8.78796" transform="matrix(-0.993509 0.113751 0.0898082 0.995959 95.9768 241.467)" fill="#005A2B"/>
<rect x="296.987" y="202.649" width="83.8547" height="284.502" rx="28.5" transform="rotate(-4.22545 296.987 202.649)" fill="black"/>
<rect x="296.987" y="202.649" width="45.5335" height="284.502" rx="4" transform="rotate(-4.22545 296.987 202.649)" fill="black"/>
<rect x="310.487" y="213.505" width="58.5973" height="261.858" rx="28.5" transform="rotate(-4.22545 310.487 213.505)" fill="#00833E"/>
<rect x="310.487" y="213.505" width="31.8186" height="261.858" rx="4" transform="rotate(-4.22545 310.487 213.505)" fill="#00833E"/>
<rect width="16.1398" height="103.851" rx="4" transform="matrix(0.99726 -0.073981 0.0735404 0.997292 404.268 291.064)" fill="black"/>
<rect width="36.2474" height="15.014" rx="4" transform="matrix(0.99726 -0.073981 0.0735404 0.997292 387.639 381.59)" fill="black"/>
<rect width="40.6486" height="15.4728" rx="4" transform="matrix(0.999896 -0.0144483 0.0143618 0.999897 377.345 290.869)" fill="black"/>
</svg>
